<?xml version="1.0" standalone="no"?>
<!DOCTYPE svg PUBLIC "-//W3C//DTD SVG 20010904//EN"
 "http://www.w3.org/TR/2001/REC-SVG-20010904/DTD/svg10.dtd">
<svg version="1.0" xmlns="http://www.w3.org/2000/svg"
 width="1433.000000pt" height="768.000000pt" viewBox="0 0 1433.000000 768.000000"
 preserveAspectRatio="xMidYMid meet">

<g transform="translate(0.000000,768.000000) scale(0.100000,-0.100000)"
fill="#000000" stroke="none">
<path d="M0 3840 l0 -3840 7165 0 7165 0 0 3840 0 3840 -7165 0 -7165 0 0
-3840z m7183 3274 c89 -45 227 -145 316 -229 98 -92 209 -207 230 -238 8 -12
25 -32 38 -44 13 -12 23 -24 23 -27 0 -3 39 -63 86 -133 48 -71 115 -186 149
-258 61 -126 155 -368 155 -400 0 -10 5 -13 12 -9 6 4 8 3 4 -4 -8 -13 15
-102 26 -102 4 0 8 -12 8 -27 0 -16 7 -53 16 -83 19 -68 21 -81 33 -154 5 -32
14 -79 20 -105 12 -51 26 -181 38 -341 11 -149 8 -583 -6 -725 -26 -275 -32
-332 -41 -375 -13 -61 -22 -130 -21 -157 1 -28 -10 -29 -34 -3 -10 11 -21 17
-26 14 -4 -2 -13 5 -19 16 -6 11 -15 20 -20 20 -6 0 -10 -122 -10 -321 l0
-322 -61 7 c-34 3 -78 6 -97 6 l-34 0 5 448 c4 314 10 482 21 567 8 65 14 120
12 122 -2 2 -84 -290 -138 -492 l-23 -90 -90 0 -90 0 -23 80 c-13 44 -50 172
-82 285 -32 113 -59 201 -59 195 -1 -5 6 -80 15 -165 12 -113 17 -262 18 -555
l1 -400 -90 4 c-49 1 -91 4 -92 5 -1 1 -3 293 -5 649 l-3 647 120 0 120 0 72
-217 c39 -120 77 -242 85 -271 l13 -53 59 188 c32 103 68 224 80 268 l22 80
89 5 90 5 5 145 c7 202 -11 677 -27 703 -2 4 -8 42 -13 85 -13 113 -36 229
-76 391 -37 150 -106 360 -122 370 -5 3 -9 13 -9 21 -1 17 -32 90 -33 76 0 -5
-21 34 -47 85 -25 52 -66 125 -89 163 -24 38 -41 73 -38 78 3 5 1 7 -4 6 -5
-2 -28 21 -51 49 -86 109 -214 238 -302 304 -60 46 -156 109 -165 109 -23 0
-208 -144 -294 -230 -171 -171 -234 -255 -341 -455 -29 -55 -56 -101 -60 -103
-5 -2 -5 -10 -2 -18 3 -8 0 -14 -7 -14 -6 0 -9 -4 -6 -9 4 -5 2 -11 -4 -13
-28 -9 -143 -378 -180 -578 -11 -58 -24 -124 -30 -148 -5 -23 -10 -59 -10 -80
0 -20 -5 -55 -10 -77 -18 -80 -25 -247 -24 -585 0 -213 6 -383 13 -445 7 -55
15 -174 18 -265 l4 -165 -52 -35 c-29 -19 -65 -45 -79 -57 -47 -42 -51 -44
-62 -41 -11 4 -14 12 -23 78 -39 277 -52 400 -64 580 -9 140 -7 549 4 655 14
146 26 244 35 295 27 160 33 189 46 228 8 24 16 56 18 70 2 15 9 40 15 57 7
16 13 42 14 57 1 15 4 28 7 28 3 0 11 20 18 44 26 98 118 328 178 446 61 118
201 333 275 422 99 118 299 305 397 371 71 49 190 116 205 117 4 0 31 -12 60
-26z m-148 -1224 c0 -36 -3 -37 -14 -7 -7 18 -2 31 14 37 1 0 1 -13 0 -30z
m273 -13 c2 -4 8 -5 13 -1 5 3 9 0 9 -6 0 -6 5 -8 12 -4 7 4 8 3 4 -4 -4 -7
-1 -12 6 -12 8 0 33 -19 56 -43 39 -39 40 -43 20 -44 -15 -2 -18 1 -10 6 9 6
8 12 -7 25 -22 20 -46 13 -37 -11 3 -8 2 -11 -4 -8 -5 3 -7 19 -5 35 3 29 -6
36 -38 31 -5 -1 -6 3 -2 9 3 5 1 10 -4 10 -6 0 -11 -6 -12 -12 0 -10 -2 -10
-6 0 -2 6 -10 9 -16 5 -7 -4 -5 1 3 12 14 17 13 17 -10 11 -19 -6 -21 -5 -10
3 8 6 10 11 4 11 -5 0 -19 7 -30 15 -14 12 -9 11 21 -2 22 -10 42 -21 43 -26z
m-299 -7 c0 -10 -3 -8 -9 5 -12 27 -12 43 0 25 5 -8 9 -22 9 -30z m-34 20 c-3
-5 0 -10 7 -10 7 -1 2 -7 -11 -14 -18 -10 -20 -15 -10 -19 10 -4 9 -6 -3 -6
-22 -1 -20 41 2 51 21 9 22 9 15 -2z m-42 -37 c-4 -11 -8 -13 -11 -5 -2 7 -8
12 -13 12 -6 0 -8 -4 -5 -8 3 -5 -2 -9 -11 -9 -12 0 -11 4 7 19 25 20 42 16
33 -9z m334 1 c-3 -3 -12 -4 -19 -1 -8 3 -5 6 6 6 11 1 17 -2 13 -5z m-391
-51 c2 -15 0 -23 -4 -18 -12 18 -58 3 -48 -14 3 -4 -1 -8 -9 -8 -18 0 13 44
38 52 10 4 14 12 11 18 -4 7 -3 9 1 5 5 -5 10 -20 11 -35z m581 -94 c-15 -23
-16 -20 -10 14 4 19 8 25 13 16 5 -7 3 -20 -3 -30z m-666 -16 c1 -10 2 -33 4
-52 l3 -33 -18 27 c-13 20 -19 23 -23 12 -3 -8 1 -23 8 -34 8 -10 14 -25 14
-33 0 -8 -4 -5 -10 8 -5 13 -13 21 -17 18 -10 -6 -9 16 3 58 8 30 8 30 17 6 5
-12 11 -21 13 -18 3 3 1 17 -4 32 -7 17 -7 26 -1 26 6 0 10 -8 11 -17z m693 1
c3 -8 2 -12 -3 -9 -21 13 -19 -14 4 -45 29 -40 28 -37 11 -37 -8 0 -12 6 -10
12 3 7 -3 18 -12 26 -15 12 -16 12 -10 -8 4 -12 3 -24 -2 -27 -5 -3 -8 10 -6
29 1 20 -2 33 -7 29 -14 -9 -10 4 8 26 21 24 19 24 27 4z m-722 -192 c8 -9 7
-11 -6 -6 -11 4 -16 17 -15 43 2 34 2 34 6 6 3 -16 10 -36 15 -43z m734 19
c-4 -5 0 -12 6 -14 8 -3 6 -6 -4 -6 -18 -1 -24 10 -11 22 9 10 15 8 9 -2z
m-35 -54 c-10 -9 -11 -8 -5 6 3 10 9 15 12 12 3 -3 0 -11 -7 -18z m49 11 c0
-4 -7 -8 -15 -8 -8 0 -15 4 -15 8 0 5 7 9 15 9 8 0 15 -4 15 -9z m-750 -13 c0
-8 4 -15 8 -15 5 0 9 -6 10 -12 3 -37 8 -54 17 -61 6 -5 4 -7 -5 -4 -8 2 -14
12 -12 22 2 11 -1 15 -9 9 -9 -5 -10 -2 -6 9 3 9 2 19 -2 22 -12 7 -21 45 -10
45 5 0 9 -7 9 -15z m735 -26 c-5 -27 -13 -35 -22 -24 -5 4 -3 10 4 12 7 2 9
11 6 19 -3 8 0 14 5 14 6 0 9 -10 7 -21z m-40 -31 c-6 -16 -4 -20 8 -15 11 4
13 0 10 -14 -7 -25 -39 -43 -49 -27 -4 6 -3 8 2 5 6 -3 16 -2 24 4 8 5 10 9 4
9 -6 0 -10 14 -10 30 0 17 4 30 8 30 5 0 6 -10 3 -22z m-626 -62 c9 -11 9 -16
-1 -22 -7 -4 -10 -4 -6 1 4 4 3 14 -3 22 -6 7 -9 13 -6 13 2 0 10 -6 16 -14z
m50 5 c2 -1 -2 -7 -8 -15 -8 -10 -9 -16 -1 -21 6 -3 8 -10 5 -15 -3 -5 -1 -11
5 -15 6 -4 8 -10 5 -15 -3 -4 3 -14 12 -21 15 -12 16 -12 10 4 -3 9 -2 17 3
17 6 0 10 -10 10 -22 0 -19 2 -20 10 -8 6 9 10 10 10 3 0 -28 -22 -21 -65 18
-41 38 -44 44 -30 59 11 12 12 19 4 27 -11 11 -7 11 30 4z m501 -11 c-6 -11
-13 -20 -16 -20 -2 0 0 9 6 20 6 11 13 20 16 20 2 0 0 -9 -6 -20z m30 -9 c0
-5 -7 -12 -16 -15 -14 -5 -15 -4 -4 9 14 17 20 19 20 6z m8 -30 c-13 -15 -25
-27 -27 -25 -2 2 -11 -6 -21 -18 -15 -19 -17 -19 -23 -5 -4 10 -2 16 6 14 7
-1 11 8 10 23 -1 14 1 19 3 13 8 -19 28 -16 49 7 27 30 30 24 3 -9z m-98 -36
c0 -2 -9 -3 -19 -2 -11 0 -18 5 -15 9 4 6 34 0 34 -7z m-1 -27 c11 -10 13 -10
7 0 -4 6 -2 12 3 12 22 0 10 -31 -16 -42 -16 -6 -42 -17 -60 -24 -39 -17 -56
-18 -50 -1 2 6 12 12 23 12 30 0 84 26 78 37 -4 6 -10 5 -15 -3 -5 -8 -9 -9
-9 -3 0 24 19 30 39 12z m-363 -17 c-3 -5 8 -14 24 -21 17 -7 29 -15 26 -17
-8 -8 -67 28 -61 37 4 6 8 10 11 10 3 0 3 -4 0 -9z m129 -51 c13 -6 15 -9 5
-9 -8 0 -22 4 -30 9 -18 12 -2 12 25 0z m61 -8 c-10 -2 -22 0 -28 6 -6 6 0 7
19 4 21 -5 23 -7 9 -10z m-565 -952 c37 -113 72 -231 79 -262 7 -32 16 -58 19
-58 5 0 133 405 146 460 2 8 6 27 10 43 l7 27 124 0 124 0 0 -649 c0 -387 -4
-652 -9 -656 -5 -3 -48 -2 -96 1 l-87 7 5 471 c3 276 10 504 16 550 7 43 10
83 8 89 -3 10 -73 -233 -122 -428 -14 -55 -28 -108 -31 -117 -4 -14 -19 -17
-90 -17 l-85 0 -14 32 c-7 18 -46 148 -86 289 -40 142 -74 256 -75 255 -1 -1
4 -51 13 -112 10 -78 16 -244 20 -569 l5 -459 -62 6 c-35 4 -78 7 -96 7 l-34
0 0 650 0 651 122 -3 121 -3 68 -205z m-701 -690 c0 -5 -12 -21 -27 -35 -15
-14 -25 -25 -21 -25 3 0 -6 -13 -20 -29 -35 -37 -105 -160 -148 -258 -30 -70
-48 -134 -83 -286 -15 -63 -13 -218 3 -292 11 -52 13 -57 20 -35 11 36 96 170
107 170 5 0 9 7 9 15 0 8 8 19 18 24 10 5 38 35 62 67 25 32 59 72 75 89 l30
30 178 -3 c97 -2 177 -7 177 -12 0 -5 -27 -21 -60 -36 -33 -15 -60 -31 -60
-35 0 -5 -6 -9 -14 -9 -8 0 -28 -13 -45 -29 -18 -17 -35 -30 -39 -31 -13 -1
-184 -165 -218 -209 -19 -24 -34 -40 -34 -36 0 4 -21 -20 -47 -53 -27 -34 -69
-87 -94 -120 -25 -32 -54 -73 -64 -90 -17 -27 -43 -48 -50 -40 -2 2 -13 59
-24 127 -29 171 -29 412 0 554 34 167 100 325 179 426 45 58 162 171 176 171
8 0 14 -4 14 -10z m2525 -11 c1 -8 6 -13 12 -12 6 1 33 -22 61 -51 40 -41 48
-56 39 -65 -9 -9 -8 -11 5 -6 13 5 28 -9 62 -55 50 -68 55 -80 29 -75 -12 1
-17 9 -15 21 3 15 1 16 -8 7 -7 -6 -19 -9 -26 -6 -24 9 -15 -6 12 -20 26 -13
26 -14 5 -20 -11 -3 -19 -1 -16 3 3 5 2 10 -3 12 -4 1 -22 28 -39 59 -22 38
-28 60 -22 71 9 17 -15 47 -28 34 -3 -3 -1 -6 5 -6 7 0 12 -8 12 -17 -1 -17
-2 -16 -15 1 -10 13 -11 24 -5 37 7 12 7 20 0 24 -6 4 -9 3 -8 -2 4 -12 -5
-15 -24 -8 -10 4 -18 13 -18 20 0 6 -9 20 -20 30 -11 10 -20 25 -20 32 0 19
25 11 25 -8z m245 -304 c0 -8 4 -15 9 -15 5 0 11 -12 14 -27 l5 -28 -18 22
c-9 12 -20 19 -24 16 -9 -10 -7 -25 3 -19 5 3 16 -9 25 -27 12 -25 16 -27 16
-12 1 18 2 17 11 -4 5 -13 7 -26 4 -29 -3 -3 -5 1 -5 9 0 12 -2 12 -9 0 -8
-12 -11 -9 -16 12 -6 22 -10 25 -21 16 -8 -6 -11 -16 -7 -22 3 -5 7 -26 9 -45
2 -20 9 -40 15 -46 9 -8 10 -7 6 6 -3 9 0 19 8 22 8 3 12 11 9 19 -3 8 2 14
11 14 9 0 14 -6 11 -14 -3 -7 -2 -13 3 -13 7 0 31 -87 31 -115 0 -7 -7 -16
-16 -19 -14 -5 -15 -4 -5 8 9 11 10 20 1 36 -6 12 -9 28 -6 36 3 8 2 13 -3 10
-5 -3 -11 1 -15 9 -3 8 -1 15 5 15 6 0 7 5 3 11 -4 8 -9 8 -17 0 -8 -8 -6 -22
6 -48 17 -38 17 -38 -1 -14 -13 16 -22 20 -26 12 -4 -6 -2 -11 4 -11 7 0 9 -9
5 -22 -4 -16 -3 -19 3 -9 7 9 12 10 16 2 4 -6 3 -11 -3 -11 -14 0 -4 -112 11
-122 10 -6 10 -8 1 -8 -18 0 -16 -41 3 -68 8 -12 13 -28 11 -35 -3 -7 -6 -5
-6 5 -2 33 -17 26 -17 -7 0 -19 3 -30 6 -25 4 6 6 -5 6 -23 -1 -25 -5 -33 -15
-29 -10 4 -11 -1 -6 -17 4 -13 1 -29 -7 -38 -9 -12 -9 -15 -1 -9 9 5 11 2 7
-8 -3 -9 -11 -16 -16 -16 -7 0 -8 17 -4 48 14 92 21 232 13 264 -4 18 -10 51
-13 73 -5 37 -43 179 -59 218 -4 10 -3 17 4 17 6 0 11 4 11 10 0 5 -6 7 -14 4
-7 -3 -16 2 -20 11 -3 9 -2 14 3 11 5 -3 12 1 15 10 5 13 2 15 -14 11 -11 -3
-18 -1 -14 4 3 5 12 9 20 9 8 0 14 5 14 10 0 7 6 7 20 0 11 -6 20 -17 20 -25z
m-250 -304 c0 -10 140 -175 151 -179 5 -2 9 -7 9 -12 0 -4 18 -35 40 -68 22
-33 40 -65 40 -71 0 -19 -22 -12 -27 9 -3 11 -10 20 -15 20 -5 0 -6 5 -3 10
10 17 -7 11 -20 -6 -9 -13 -11 -10 -9 17 2 34 -48 129 -69 129 -5 0 -3 -8 4
-17 13 -16 12 -17 -3 -4 -10 7 -15 17 -12 22 8 14 -29 70 -43 65 -8 -3 -10 1
-6 12 6 15 4 15 -9 4 -14 -11 -16 -10 -11 9 4 15 3 20 -5 15 -8 -4 -10 -2 -6
7 6 16 -11 25 -43 22 -17 -1 -20 3 -17 22 3 14 -1 24 -8 24 -25 3 -328 6 -325
3 1 -2 14 -5 27 -7 41 -8 64 -20 78 -39 7 -10 19 -15 25 -12 9 5 8 3 0 -6 -10
-11 -16 -10 -33 5 -12 11 -26 20 -33 21 -27 5 -87 35 -87 44 0 6 70 11 173 12
167 3 173 2 205 -21 17 -13 32 -27 32 -30z m-213 3 c-3 -3 -12 -4 -19 -1 -8 3
-5 6 6 6 11 1 17 -2 13 -5z m-1707 -14 c0 -6 -7 -26 -14 -45 -8 -19 -12 -35
-9 -35 3 0 0 -6 -6 -13 -6 -8 -8 -16 -6 -19 3 -3 0 -18 -6 -34 -7 -16 -11 -33
-10 -38 1 -5 -3 -12 -9 -16 -6 -4 -12 -21 -13 -38 -1 -18 -6 -32 -10 -32 -5 0
-7 -10 -5 -22 2 -16 9 -22 21 -20 9 2 17 -1 17 -6 0 -5 8 -12 18 -15 9 -3 141
-49 292 -102 151 -53 290 -101 308 -106 35 -11 44 -29 13 -29 -10 0 -63 9
-117 19 -54 11 -153 29 -219 41 -66 11 -138 25 -160 31 -22 5 -56 12 -75 15
-19 2 -46 7 -60 10 -14 3 -36 7 -50 9 -14 3 -54 11 -90 19 -35 8 -68 12 -72
10 -4 -3 -8 2 -8 11 0 15 46 252 56 285 2 9 24 26 49 40 25 14 45 28 45 33 0
4 5 5 10 2 6 -3 10 -1 10 4 0 6 7 11 15 11 8 0 15 5 15 12 0 6 3 9 6 5 4 -3
13 0 21 8 17 17 43 20 43 5z m1330 0 c13 -9 13 -12 -1 -23 -14 -10 -14 -14 -2
-25 7 -7 11 -19 7 -25 -3 -7 1 -4 10 7 14 18 42 14 30 -5 -3 -5 -9 -7 -14 -4
-4 3 -10 -4 -13 -15 -6 -24 18 -121 32 -129 15 -10 9 -51 -7 -51 -12 0 -12 2
-1 17 11 13 11 17 2 20 -7 3 -13 11 -13 19 0 8 -4 14 -10 14 -5 0 -7 7 -4 15
4 8 2 15 -3 15 -5 0 -8 18 -8 40 0 28 -4 40 -14 40 -8 0 -11 3 -8 6 3 4 3 14
-2 23 -5 9 -11 28 -15 44 -7 29 6 35 34 17z m940 -12 c7 -102 10 -388 3 -388
-4 0 -7 72 -6 160 1 88 -1 159 -5 156 -6 -3 -7 34 -3 82 2 20 9 14 11 -10z
m-882 -26 c2 -7 8 -10 13 -6 5 3 9 1 9 -3 0 -5 20 -20 45 -33 25 -14 48 -34
51 -45 13 -58 54 -270 54 -282 0 -8 -4 -11 -10 -8 -5 3 -15 3 -21 -1 -6 -3
-28 -8 -48 -10 -89 -9 -101 -12 -113 -21 -7 -5 -29 -10 -48 -11 -19 -2 -62 -9
-95 -17 -33 -8 -112 -24 -175 -35 -63 -10 -164 -28 -224 -40 -124 -23 -136
-24 -136 -11 0 12 100 42 113 34 6 -3 7 -2 4 3 -3 6 27 21 66 34 40 14 119 41
177 62 75 27 108 34 115 26 7 -7 6 -9 -2 -4 -6 3 -19 3 -29 -1 -16 -6 -16 -7
2 -14 18 -7 18 -8 -1 -8 -17 -1 -17 -3 -5 -11 10 -7 11 -10 2 -10 -7 0 -15 7
-18 15 -6 14 -8 14 -18 0 -6 -9 -20 -14 -31 -13 -11 2 -21 -1 -21 -7 -1 -5 2
-9 8 -7 5 1 6 -3 3 -9 -5 -8 -10 -8 -18 0 -15 15 -30 14 -21 -1 6 -10 4 -10
-7 0 -18 17 -32 15 -25 -3 6 -18 -22 -34 -33 -19 -7 11 -26 12 -37 2 -4 -5
-14 -8 -21 -8 -8 0 -21 -6 -29 -14 -12 -13 -12 -15 5 -13 11 0 17 5 14 10 -3
5 4 6 17 2 14 -4 20 -3 17 2 -4 6 14 10 41 11 72 1 101 6 94 16 -3 5 5 7 16 4
12 -4 22 -2 22 2 0 5 9 7 20 5 11 -2 18 0 15 6 -4 5 1 9 9 9 9 0 16 -5 16 -11
0 -6 9 -4 21 5 12 8 29 12 38 10 9 -3 5 2 -9 10 l-25 16 26 -6 c14 -3 42 1 61
9 26 11 35 12 35 2 0 -7 -5 -12 -11 -12 -31 0 -46 -4 -46 -14 0 -7 7 -8 18 -4
9 4 22 8 27 9 6 1 16 5 23 9 6 5 16 6 21 2 6 -3 14 3 20 12 6 10 11 13 11 6 0
-10 32 -10 95 1 11 2 29 4 41 5 11 0 29 8 40 16 19 15 19 15 -1 8 -18 -6 -18
-5 -6 10 10 13 10 17 1 17 -9 0 -9 4 1 17 8 9 9 14 3 10 -8 -4 -11 4 -11 26 2
56 -23 125 -47 131 -21 6 -21 7 -2 21 14 11 16 15 5 15 -12 0 -12 2 1 10 11 7
11 10 2 10 -7 0 -10 5 -6 11 4 7 1 10 -6 7 -8 -2 -16 -10 -18 -18 -3 -7 0 -10
5 -7 5 3 10 0 10 -8 0 -8 -4 -15 -8 -15 -12 0 -20 33 -10 43 16 16 -30 37 -49
23 -13 -9 -13 -9 -3 5 11 13 9 18 -13 27 -14 7 -32 12 -40 12 -8 0 -13 4 -10
8 8 13 49 7 54 -6z m307 -3 c-4 -5 1 -9 9 -9 8 0 14 6 12 13 -1 6 -1 9 1 5 3
-5 9 -8 14 -8 6 0 7 6 3 13 -5 9 -4 9 6 0 17 -15 22 -75 6 -70 -6 2 -10 13
-10 25 1 12 -3 19 -7 16 -5 -3 -7 -10 -4 -15 9 -14 -5 -11 -21 5 -7 8 -19 16
-26 18 -6 2 -8 10 -4 16 4 7 12 10 17 6 5 -3 7 -10 4 -15z m98 -66 c-3 -9 3
-16 15 -20 14 -3 19 -10 15 -21 -4 -10 -2 -13 6 -8 7 5 10 2 9 -5 -2 -7 4 -14
12 -14 8 0 14 -6 13 -12 -2 -8 8 -11 25 -8 26 3 28 0 28 -28 -1 -23 3 -32 14
-31 9 1 17 -8 17 -19 2 -15 -13 -6 -60 40 -34 34 -78 75 -97 92 -19 17 -29 31
-22 31 7 0 11 4 8 8 -3 5 1 9 8 9 8 0 12 -7 9 -14z m274 -119 c-3 -3 -12 -4
-19 -1 -8 3 -5 6 6 6 11 1 17 -2 13 -5z m-642 -24 c-3 -5 -12 -10 -18 -10 -7
0 -6 4 3 10 19 12 23 12 15 0z m550 -50 c2 -17 0 -28 -3 -25 -3 3 -7 19 -8 36
-1 17 0 28 3 25 3 -3 7 -19 8 -36z m-545 20 c8 -5 12 -11 9 -14 -3 -3 -14 1
-25 9 -21 16 -8 20 16 5z m-31 -37 c-7 -8 -20 -11 -33 -7 -12 4 -18 3 -14 -1
10 -11 -38 -35 -68 -35 -13 0 -24 -5 -24 -11 0 -5 4 -8 9 -4 5 3 13 0 17 -6 4
-8 3 -9 -4 -5 -7 4 -12 2 -12 -5 0 -7 -7 -4 -15 7 -14 18 -16 18 -25 2 -6 -10
-21 -23 -33 -29 -12 -7 -19 -8 -15 -4 4 5 3 14 -3 22 -9 9 -8 13 0 13 6 0 11
-4 11 -10 0 -5 4 -10 10 -10 5 0 7 7 4 15 -4 10 0 15 11 15 9 0 13 5 9 11 -4
8 1 9 16 4 15 -5 20 -4 16 4 -5 7 -1 9 8 5 10 -4 16 -1 16 7 0 12 2 12 9 0 5
-7 14 -10 20 -7 6 4 9 12 6 17 -7 10 -4 11 40 13 23 2 29 6 27 21 -3 16 -2 17
12 6 13 -11 14 -17 5 -28z m858 -35 c-2 -13 -4 -5 -4 17 -1 22 1 32 4 23 2
-10 2 -28 0 -40z m-209 -1 c21 -20 32 -11 12 9 -7 7 -6 11 3 11 8 0 13 -9 12
-21 -3 -30 -3 -30 -19 -17 -10 8 -16 9 -21 1 -3 -5 -1 -10 5 -10 6 0 8 -5 5
-11 -4 -6 -17 3 -31 22 -29 39 -28 36 -6 36 9 0 27 -9 40 -20z m132 -27 c0
-13 -1 -13 -10 0 -5 8 -10 22 -10 30 0 13 1 13 10 0 5 -8 10 -22 10 -30z m37
-22 c-3 -8 -6 -5 -6 6 -1 11 2 17 5 13 3 -3 4 -12 1 -19z m-58 -15 c-8 -10
-22 -24 -31 -31 -15 -11 -15 -15 -1 -42 8 -17 19 -30 24 -30 6 0 17 -17 26
-37 9 -22 18 -32 21 -24 3 8 7 10 11 3 13 -21 34 6 35 47 0 22 4 37 9 32 4 -4
5 -26 1 -49 -6 -40 -16 -49 -48 -43 -5 1 -4 -5 4 -13 14 -18 25 -22 15 -6 -3
6 -1 10 4 10 6 0 11 -9 11 -20 0 -21 -8 -25 -26 -12 -14 9 -114 153 -114 164
0 8 60 67 69 68 2 0 -3 -8 -10 -17z m-65 -25 c-3 -4 -9 -8 -15 -8 -5 0 -9 4
-9 8 0 5 7 9 15 9 8 0 12 -4 9 -9z m167 -31 c-8 -8 -11 -7 -11 4 0 20 13 34
18 19 3 -7 -1 -17 -7 -23z m-108 -1 c4 -10 1 -13 -9 -9 -7 3 -14 9 -14 14 0
14 17 10 23 -5z m-2328 -56 c104 -34 117 -46 130 -115 1 -5 3 -12 5 -15 1 -3
4 -16 6 -30 1 -14 5 -38 9 -55 3 -16 8 -46 10 -65 3 -19 9 -57 15 -85 6 -28
13 -65 16 -81 2 -16 9 -54 15 -84 31 -168 41 -223 54 -300 25 -144 24 -140 43
-130 38 22 186 70 192 63 4 -4 51 -174 105 -378 54 -203 102 -381 108 -395 6
-14 9 -29 8 -33 -1 -5 5 -23 12 -40 12 -27 29 -87 42 -147 2 -8 8 -28 14 -43
14 -35 14 -67 1 -67 -5 0 -42 64 -81 143 -39 78 -76 145 -81 148 -5 3 -9 8 -7
10 5 9 -13 49 -23 49 -6 0 -9 3 -5 6 3 3 2 11 -4 18 -5 6 -56 107 -114 224
-57 116 -108 212 -111 212 -4 0 -36 -29 -73 -64 -36 -36 -78 -74 -93 -86 l-27
-21 -6 23 c-9 40 -66 310 -83 395 -9 50 -19 78 -24 70 -4 -6 -5 3 -2 21 4 17
3 32 -2 32 -5 0 -10 16 -11 36 -1 20 -5 44 -9 53 -4 9 -9 32 -11 51 -2 19 -8
39 -12 45 -5 5 -11 28 -14 50 -2 22 -7 49 -11 60 -9 33 -24 98 -29 130 -3 17
-15 72 -26 122 -25 109 -30 309 -8 301 6 -3 44 -15 82 -28z m1735 -72 c0 -80
-8 -140 -35 -268 -20 -91 -37 -172 -40 -180 -2 -8 -4 -18 -4 -22 -1 -5 -7 -8
-15 -8 -8 0 -17 -6 -19 -12 -3 -7 -3 3 0 22 3 19 10 39 14 44 5 6 9 17 9 25 0
14 -1 14 -10 1 -5 -8 -10 -10 -10 -4 0 5 7 19 16 30 8 10 13 14 10 9 -2 -6 0
-17 5 -25 9 -13 10 -13 8 0 -2 8 1 30 5 48 4 19 9 43 11 55 6 49 18 103 25
112 12 16 9 99 -4 107 -7 5 -6 8 5 8 13 0 14 9 9 50 -4 28 -3 53 2 56 4 3 4
14 -2 24 -13 25 -13 30 5 30 12 0 15 -18 15 -102z m-30 73 c8 -16 7 -19 -8
-16 -9 1 -30 -4 -45 -12 -16 -8 -35 -12 -43 -9 -9 4 -18 -4 -24 -19 -5 -14
-15 -25 -22 -25 -9 0 -9 3 0 12 19 19 14 30 -9 18 -11 -7 -18 -14 -15 -17 3
-3 1 -14 -5 -24 -8 -15 -6 -18 8 -13 17 5 17 5 0 -6 -9 -6 -14 -16 -11 -22 4
-7 2 -8 -4 -4 -13 8 -17 -6 -5 -18 10 -10 11 -46 1 -40 -4 3 -8 2 -9 -3 0 -4
-3 -21 -5 -38 -3 -16 -6 -37 -6 -45 0 -8 -5 -21 -11 -28 -7 -9 -7 -16 0 -20
15 -10 12 -41 -3 -35 -10 3 -12 -6 -11 -35 1 -22 -1 -39 -4 -36 -11 6 -19 -24
-19 -67 0 -21 -5 -39 -10 -39 -7 0 -7 -7 1 -21 8 -15 8 -19 0 -15 -15 10 -14
-7 1 -22 9 -9 9 -15 -1 -24 -10 -11 -11 -9 -5 7 4 11 3 16 -1 12 -5 -4 -8 -24
-7 -45 2 -27 0 -33 -8 -22 -7 11 -10 5 -9 -25 0 -31 2 -36 9 -20 7 16 8 14 7
-11 -1 -20 -6 -30 -14 -27 -12 5 -11 -54 2 -92 5 -15 3 -14 -8 4 -13 22 -14
21 -26 -35 -7 -33 -13 -69 -14 -81 -1 -13 -5 -19 -9 -15 -7 7 39 302 57 362 2
8 6 33 10 54 3 21 7 48 10 60 7 31 15 76 22 118 3 21 8 36 12 34 3 -3 7 17 7
42 1 26 4 63 8 82 4 19 8 44 9 55 1 11 5 25 10 32 4 6 4 18 1 27 -4 9 0 18 10
22 11 4 13 11 6 23 -7 15 3 22 73 48 101 38 94 37 107 14z m-189 -274 c-10 -9
-11 -8 -5 6 3 10 9 15 12 12 3 -3 0 -11 -7 -18z m150 -112 c-5 -19 -6 -19 -9
3 -3 17 -8 22 -19 18 -13 -5 -14 -4 -4 8 17 20 40 -1 32 -29z m-30 -232 c-6
-22 -12 -52 -15 -69 -2 -16 -7 -37 -11 -46 -4 -10 -5 -25 -1 -33 3 -8 2 -15
-3 -15 -5 0 -15 -30 -22 -67 -8 -38 -15 -59 -17 -48 -3 10 -11 31 -19 45 -14
23 -14 24 1 6 9 -11 16 -18 17 -15 0 2 2 12 4 22 2 9 -1 15 -6 11 -5 -3 -9 2
-9 11 0 10 -5 13 -12 9 -7 -5 -8 -3 -3 5 5 9 10 10 18 2 15 -15 27 -14 21 3
-3 7 1 30 9 49 9 19 20 61 27 94 14 72 19 87 26 80 3 -3 1 -23 -5 -44z m-83
-284 c-3 -8 -7 -3 -11 10 -4 17 -3 21 5 13 5 -5 8 -16 6 -23z m-300 -26 c87
-30 100 -38 77 -47 -9 -3 -13 -2 -10 3 3 6 -7 6 -27 0 -44 -12 -48 -11 -18 6
29 16 22 19 -13 6 -19 -7 -26 -5 -37 12 -13 21 -13 21 -21 2 -7 -19 -8 -19 -8
3 -1 26 -21 30 -22 5 -1 -12 -4 -10 -9 7 -8 26 -8 26 -15 -30 -1 -8 -7 -28
-14 -44 -6 -16 -9 -31 -6 -34 2 -3 -1 -12 -7 -20 -7 -8 -13 -28 -15 -46 -2
-39 -20 -106 -23 -86 0 8 -8 -6 -17 -33 -27 -79 -25 -46 2 54 14 52 35 133 47
182 26 101 22 100 136 60z m271 -204 c-49 -236 -47 -228 -59 -209 -6 8 -10 11
-10 7 0 -12 -31 11 -104 80 -59 55 -84 85 -56 68 6 -3 10 -4 10 -1 0 3 -5 8
-10 11 -6 4 -61 -96 -127 -232 -65 -131 -121 -240 -125 -241 -5 -2 -5 -9 -1
-14 4 -7 -1 -9 -14 -6 -15 4 -20 1 -19 -11 0 -9 6 -19 11 -23 6 -5 5 -8 -3 -8
-7 0 -10 -4 -7 -10 3 -5 1 -10 -5 -10 -7 0 -10 7 -6 15 3 8 0 15 -5 15 -7 0
-9 -9 -6 -22 4 -14 -15 -64 -56 -149 -57 -118 -87 -156 -87 -111 0 25 48 201
66 239 8 17 11 38 8 47 -4 9 -1 16 6 16 7 0 10 7 6 15 -3 8 -2 15 2 15 5 0 16
33 27 73 10 39 22 77 26 83 5 6 6 14 2 17 -3 4 -1 7 6 7 8 0 10 8 6 23 -5 20
-5 20 9 -3 9 -14 15 -35 16 -47 0 -12 4 -23 10 -25 5 -2 6 -9 1 -17 -7 -10
-12 -2 -18 29 l-8 43 -23 -67 c-13 -36 -20 -71 -16 -78 5 -7 3 -8 -6 -3 -10 6
-12 4 -7 -8 3 -9 2 -19 -4 -23 -6 -4 -5 -12 3 -22 8 -10 9 -13 1 -9 -14 9 -26
-8 -30 -45 -1 -15 -3 -31 -4 -35 -1 -4 -1 -19 0 -32 1 -18 4 -21 14 -12 8 6
16 8 19 5 9 -8 21 73 13 86 -3 5 -1 10 5 10 6 0 8 4 5 10 -4 6 1 7 12 4 13 -4
11 0 -6 14 -26 21 -15 38 18 27 14 -4 21 0 26 15 3 11 11 20 16 20 5 0 9 7 9
15 0 8 4 15 9 15 14 0 20 38 7 44 -6 2 -2 5 9 5 17 1 17 3 5 11 -12 8 -12 10
5 11 11 0 14 3 8 6 -7 2 -13 12 -13 21 0 14 2 14 9 3 7 -11 11 -10 20 7 6 11
8 22 3 25 -4 2 -1 2 6 1 6 -2 12 5 12 14 0 10 6 24 13 31 6 8 7 11 1 8 -7 -4
-11 2 -10 16 1 17 7 21 26 20 l25 -3 -27 16 c-16 8 -28 17 -28 20 0 2 9 0 20
-6 18 -10 20 -8 17 12 -2 13 -2 17 0 11 3 -7 8 -13 11 -13 13 0 33 41 26 52
-4 6 -3 8 4 4 6 -4 21 14 36 43 22 45 23 50 8 55 -9 2 -3 3 15 1 38 -4 55 -13
48 -26 -9 -13 46 -58 66 -54 13 3 15 -2 11 -17 -4 -16 -2 -19 8 -13 8 5 11 4
6 -3 -3 -6 -2 -13 3 -16 14 -9 21 20 8 33 -9 9 -8 10 7 5 13 -5 17 -4 12 4 -4
7 -2 10 6 7 33 -12 51 27 49 108 0 26 4 37 14 37 8 0 15 5 15 11 0 5 -4 8 -9
5 -5 -3 0 17 10 44 10 28 20 66 22 85 1 18 5 31 10 26 4 -4 -11 -95 -34 -202z
m-279 -64 c0 -5 -5 -3 -10 5 -5 8 -10 20 -10 25 0 6 5 3 10 -5 5 -8 10 -19 10
-25z m-210 -151 c-10 -36 -17 -73 -14 -82 5 -16 5 -16 -6 0 -8 13 -6 33 7 83
9 36 20 65 24 65 4 0 -1 -30 -11 -66z m-33 -206 c-3 -8 -6 -5 -6 6 -1 11 2 17
5 13 3 -3 4 -12 1 -19z m57 -4 c3 -8 2 -12 -4 -9 -6 3 -10 10 -10 16 0 14 7
11 14 -7z"/>
<path d="M6846 5312 c-3 -5 4 -18 17 -28 21 -19 21 -19 7 0 -8 11 -13 21 -12
23 2 3 1 7 -1 9 -3 3 -8 1 -11 -4z"/>
<path d="M8420 3480 c0 -5 5 -10 11 -10 5 0 7 5 4 10 -3 6 -8 10 -11 10 -2 0
-4 -4 -4 -10z"/>
<path d="M8430 3456 c0 -2 7 -9 15 -16 13 -11 14 -10 9 4 -5 14 -24 23 -24 12z"/>
<path d="M8518 3353 c-4 -19 21 -55 33 -48 4 3 13 -3 20 -13 13 -15 12 -16 -3
-3 -10 7 -18 9 -18 3 0 -14 28 -23 35 -11 8 12 -34 71 -46 64 -5 -4 -6 1 -3 9
3 9 1 16 -4 16 -6 0 -12 -8 -14 -17z"/>
<path d="M8613 3214 c3 -4 2 -15 -3 -24 -7 -14 -6 -18 5 -16 9 1 15 5 15 9 0
4 0 14 0 22 0 8 -5 15 -12 15 -6 0 -8 -3 -5 -6z"/>
<path d="M8616 3128 c3 -4 11 -5 19 -1 21 7 19 12 -4 10 -11 0 -18 -5 -15 -9z"/>
<path d="M8350 2906 c0 -2 7 -7 16 -10 8 -3 12 -2 9 4 -6 10 -25 14 -25 6z"/>
<path d="M7300 2360 c0 -5 5 -10 10 -10 6 0 10 5 10 10 0 6 -4 10 -10 10 -5 0
-10 -4 -10 -10z"/>
<path d="M8362 2678 c2 -6 10 -14 16 -16 7 -2 10 2 6 12 -7 18 -28 22 -22 4z"/>
<path d="M8496 2541 c-4 -5 -2 -12 3 -15 5 -4 12 -2 15 3 4 5 2 12 -3 15 -5 4
-12 2 -15 -3z"/>
<path d="M7925 2340 c-16 -7 -17 -9 -3 -9 9 -1 20 4 23 9 7 11 7 11 -20 0z"/>
<path d="M7540 1420 c8 -5 20 -10 25 -10 6 0 3 5 -5 10 -8 5 -19 10 -25 10 -5
0 -3 -5 5 -10z"/>
<path d="M7396 1233 c-6 -14 -5 -15 5 -6 7 7 10 15 7 18 -3 3 -9 -2 -12 -12z"/>
<path d="M7770 1102 c-19 -6 -30 -23 -23 -35 3 -5 10 -3 15 4 8 11 9 11 5 -1
-2 -8 -12 -14 -22 -12 -23 4 -11 -14 14 -21 16 -4 20 2 24 32 5 42 6 40 -13
33z"/>
<path d="M7450 990 c0 -5 5 -10 10 -10 6 0 10 5 10 10 0 6 -4 10 -10 10 -5 0
-10 -4 -10 -10z"/>
<path d="M7204 536 c-3 -14 -4 -32 -1 -40 3 -8 1 -17 -6 -19 -9 -3 -9 -7 0
-16 7 -6 11 -8 8 -4 -3 3 2 14 11 24 12 14 13 22 4 38 -6 12 -7 21 -1 21 5 0
11 -6 13 -12 3 -8 10 -3 18 12 12 22 11 23 -2 13 -11 -9 -17 -10 -26 -1 -8 8
-13 4 -18 -16z"/>
<path d="M7177 429 c-4 -16 -3 -18 9 -8 7 6 11 15 8 20 -8 13 -11 11 -17 -12z"/>
</g>
</svg>
